<svg width="924" height="1001" viewBox="0 0 924 1001" fill="none" xmlns="http://www.w3.org/2000/svg">
<path d="M43.3382 65.1522C20.5979 100.164 23.1849 138.718 20.2593 178.537C17.8804 210.915 10.3595 242.046 6.50528 274.19C4.98549 286.865 1.43773 300.376 2.07601 313.151C2.69624 325.566 9.76895 335.705 9.76895 347.913C9.76895 372.317 10.1916 395.828 28.4185 413.704C39.6452 424.715 82.7917 429.674 85.0665 443.334C87.311 456.811 93.5798 473.134 98.8206 486.028C108.327 509.415 110.263 534.136 119.568 557.418C131.619 587.569 149.682 604.204 166.891 628.808C181.26 649.35 192.726 670.069 212.583 685.967C226.073 696.767 244.626 705.292 255.943 716.996C277.444 739.231 290.638 764.134 306.297 790.253C326.658 824.214 367.086 826.597 389.287 855.577C406.217 877.676 430.154 892.526 451.763 909.003C468.581 921.827 476.22 942.578 495.59 953.563C509.49 961.446 531.067 963.299 546.177 967.795C576.443 976.8 607.382 980.398 638.259 986.692C672.064 993.584 708.396 1010.3 737.568 987.159C786.179 948.596 826.41 897.092 869.747 853.011C897.337 824.946 913.755 800.471 920.334 761.79C927.015 722.508 912.234 676.777 900.285 639.307C881.841 581.469 861.716 537.942 821.491 492.094C798.511 465.901 769.564 439.146 761.113 403.906C753.09 370.45 742.923 335.718 730.574 303.586C708.398 245.883 661.252 188.169 623.339 140.742C603.148 115.483 557.897 117.217 528.693 109.246C500.434 101.533 469.934 92.3239 444.77 77.2839C423.77 64.7325 403.583 50.9062 382.993 37.856C363.42 25.45 345.402 27.3574 323.082 27.3574C254.102 27.3574 187.711 -0.349711 117.47 2.16086C105.519 2.58801 58.4764 8.95317 51.4973 21.7582C48.0412 28.0994 40.5373 41.3572 34.9459 44.1551" stroke="black" stroke-width="3" stroke-linecap="round"/>
</svg>
