<svg width="22" height="27" viewBox="0 0 22 27" fill="none" xmlns="http://www.w3.org/2000/svg">
<path d="M0.224 26.528V5.36H2.576V3.008H4.904V0.655999H21.752V21.848H19.424V24.2H17.072V26.528H0.224ZM5.528 1.28V3.008H19.424V21.248H21.152V1.28H5.528ZM3.176 3.608V5.36H17.072V23.576H18.8V3.608H3.176ZM0.824 25.928H16.472V5.96H0.824V25.928ZM2.888 10.592C2.76 10.592 2.648 10.544 2.552 10.448C2.456 10.352 2.408 10.24 2.408 10.112C2.408 9.984 2.456 9.88 2.552 9.8C2.648 9.704 2.76 9.656 2.888 9.656H14.408C14.552 9.656 14.664 9.704 14.744 9.8C14.84 9.88 14.888 9.984 14.888 10.112C14.888 10.24 14.84 10.352 14.744 10.448C14.664 10.544 14.552 10.592 14.408 10.592H2.888ZM2.888 13.16C2.76 13.16 2.648 13.12 2.552 13.04C2.456 12.944 2.408 12.832 2.408 12.704C2.408 12.576 2.456 12.464 2.552 12.368C2.648 12.272 2.76 12.224 2.888 12.224H14.408C14.536 12.224 14.648 12.272 14.744 12.368C14.84 12.464 14.888 12.576 14.888 12.704C14.888 12.832 14.84 12.944 14.744 13.04C14.648 13.12 14.536 13.16 14.408 13.16H2.888ZM2.888 15.728C2.76 15.728 2.648 15.68 2.552 15.584C2.456 15.488 2.408 15.384 2.408 15.272C2.408 15.144 2.456 15.032 2.552 14.936C2.648 14.84 2.76 14.792 2.888 14.792H14.408C14.536 14.792 14.648 14.84 14.744 14.936C14.84 15.032 14.888 15.144 14.888 15.272C14.888 15.384 14.84 15.488 14.744 15.584C14.648 15.68 14.536 15.728 14.408 15.728H2.888ZM2.888 18.32C2.76 18.32 2.648 18.272 2.552 18.176C2.456 18.08 2.408 17.968 2.408 17.84C2.408 17.712 2.456 17.608 2.552 17.528C2.648 17.432 2.76 17.384 2.888 17.384H14.408C14.536 17.384 14.648 17.432 14.744 17.528C14.84 17.608 14.888 17.712 14.888 17.84C14.888 17.968 14.84 18.08 14.744 18.176C14.648 18.272 14.536 18.32 14.408 18.32H2.888ZM2.888 20.888C2.76 20.888 2.648 20.84 2.552 20.744C2.456 20.648 2.408 20.544 2.408 20.432C2.408 20.304 2.456 20.192 2.552 20.096C2.648 20 2.76 19.952 2.888 19.952H14.408C14.536 19.952 14.648 20 14.744 20.096C14.84 20.192 14.888 20.304 14.888 20.432C14.888 20.544 14.84 20.648 14.744 20.744C14.648 20.84 14.536 20.888 14.408 20.888H2.888Z" fill="#6F68F6"/>
</svg>
